<?xml version="1.0" encoding="utf-8" standalone="no"?>
<!DOCTYPE svg PUBLIC "-//W3C//DTD SVG 1.1//EN"
  "http://www.w3.org/Graphics/SVG/1.1/DTD/svg11.dtd">
<svg height="576pt" version="1.1" viewBox="0 0 1008 576" width="1008pt" xmlns="http://www.w3.org/2000/svg" xmlns:xlink="http://www.w3.org/1999/xlink">
 <metadata>
  <rdf:RDF xmlns:cc="http://creativecommons.org/ns#" xmlns:dc="http://purl.org/dc/elements/1.1/" xmlns:rdf="http://www.w3.org/1999/02/22-rdf-syntax-ns#">
   <cc:Work>
    <dc:type rdf:resource="http://purl.org/dc/dcmitype/StillImage"/>
    <dc:date>2024-10-18T21:16:46.500032</dc:date>
    <dc:format>image/svg+xml</dc:format>
    <dc:creator>
     <cc:Agent>
      <dc:title>Matplotlib v3.4.3, https://matplotlib.org/</dc:title>
     </cc:Agent>
    </dc:creator>
   </cc:Work>
  </rdf:RDF>
 </metadata>
 <defs>
  <style type="text/css">*{stroke-linecap:butt;stroke-linejoin:round;}</style>
 </defs>
 <g id="figure_1">
  <g id="patch_1">
   <path d="M 0 576 
L 1008 576 
L 1008 0 
L 0 0 
z
" style="fill:none;"/>
  </g>
  <g id="axes_1">
   <g id="patch_2">
    <path d="M 93.218125 451.640295 
L 988.56 451.640295 
L 988.56 19.44 
L 93.218125 19.44 
z
" style="fill:#ffffff;"/>
   </g>
   <g id="matplotlib.axis_1">
    <g id="xtick_1">
     <g id="line2d_1">
      <path clip-path="url(#p9c1d8e1f4c)" d="M 206.806273 451.640295 
L 206.806273 19.44 
" style="fill:none;stroke:#b0b0b0;stroke-dasharray:1.85,0.8;stroke-dashoffset:0;stroke-opacity:0.7;stroke-width:0.5;"/>
     </g>
     <g id="line2d_2">
      <defs>
       <path d="M 0 0 
L 0 3.5 
" id="m1934196e8f" style="stroke:#000000;stroke-width:0.8;"/>
      </defs>
      <g>
       <use style="stroke:#000000;stroke-width:0.8;" x="206.806273" xlink:href="#m1934196e8f" y="451.640295"/>
      </g>
     </g>
     <g id="text_1">
      <!-- 2023-07 -->
      <g transform="translate(183.727965 521.492365)rotate(-45)scale(0.18 -0.18)">
       <defs>
        <path d="M 1228 531 
L 3431 531 
L 3431 0 
L 469 0 
L 469 531 
Q 828 903 1448 1529 
Q 2069 2156 2228 2338 
Q 2531 2678 2651 2914 
Q 2772 3150 2772 3378 
Q 2772 3750 2511 3984 
Q 2250 4219 1831 4219 
Q 1534 4219 1204 4116 
Q 875 4013 500 3803 
L 500 4441 
Q 881 4594 1212 4672 
Q 1544 4750 1819 4750 
Q 2544 4750 2975 4387 
Q 3406 4025 3406 3419 
Q 3406 3131 3298 2873 
Q 3191 2616 2906 2266 
Q 2828 2175 2409 1742 
Q 1991 1309 1228 531 
z
" id="DejaVuSans-32" transform="scale(0.015625)"/>
        <path d="M 2034 4250 
Q 1547 4250 1301 3770 
Q 1056 3291 1056 2328 
Q 1056 1369 1301 889 
Q 1547 409 2034 409 
Q 2525 409 2770 889 
Q 3016 1369 3016 2328 
Q 3016 3291 2770 3770 
Q 2525 4250 2034 4250 
z
M 2034 4750 
Q 2819 4750 3233 4129 
Q 3647 3509 3647 2328 
Q 3647 1150 3233 529 
Q 2819 -91 2034 -91 
Q 1250 -91 836 529 
Q 422 1150 422 2328 
Q 422 3509 836 4129 
Q 1250 4750 2034 4750 
z
" id="DejaVuSans-30" transform="scale(0.015625)"/>
        <path d="M 2597 2516 
Q 3050 2419 3304 2112 
Q 3559 1806 3559 1356 
Q 3559 666 3084 287 
Q 2609 -91 1734 -91 
Q 1441 -91 1130 -33 
Q 819 25 488 141 
L 488 750 
Q 750 597 1062 519 
Q 1375 441 1716 441 
Q 2309 441 2620 675 
Q 2931 909 2931 1356 
Q 2931 1769 2642 2001 
Q 2353 2234 1838 2234 
L 1294 2234 
L 1294 2753 
L 1863 2753 
Q 2328 2753 2575 2939 
Q 2822 3125 2822 3475 
Q 2822 3834 2567 4026 
Q 2313 4219 1838 4219 
Q 1578 4219 1281 4162 
Q 984 4106 628 3988 
L 628 4550 
Q 988 4650 1302 4700 
Q 1616 4750 1894 4750 
Q 2613 4750 3031 4423 
Q 3450 4097 3450 3541 
Q 3450 3153 3228 2886 
Q 3006 2619 2597 2516 
z
" id="DejaVuSans-33" transform="scale(0.015625)"/>
        <path d="M 313 2009 
L 1997 2009 
L 1997 1497 
L 313 1497 
L 313 2009 
z
" id="DejaVuSans-2d" transform="scale(0.015625)"/>
        <path d="M 525 4666 
L 3525 4666 
L 3525 4397 
L 1831 0 
L 1172 0 
L 2766 4134 
L 525 4134 
L 525 4666 
z
" id="DejaVuSans-37" transform="scale(0.015625)"/>
       </defs>
       <use xlink:href="#DejaVuSans-32"/>
       <use x="63.623047" xlink:href="#DejaVuSans-30"/>
       <use x="127.246094" xlink:href="#DejaVuSans-32"/>
       <use x="190.869141" xlink:href="#DejaVuSans-33"/>
       <use x="254.492188" xlink:href="#DejaVuSans-2d"/>
       <use x="290.576172" xlink:href="#DejaVuSans-30"/>
       <use x="354.199219" xlink:href="#DejaVuSans-37"/>
      </g>
     </g>
    </g>
    <g id="xtick_2">
     <g id="line2d_3">
      <path clip-path="url(#p9c1d8e1f4c)" d="M 357.44724 451.640295 
L 357.44724 19.44 
" style="fill:none;stroke:#b0b0b0;stroke-dasharray:1.85,0.8;stroke-dashoffset:0;stroke-opacity:0.7;stroke-width:0.5;"/>
     </g>
     <g id="line2d_4">
      <g>
       <use style="stroke:#000000;stroke-width:0.8;" x="357.44724" xlink:href="#m1934196e8f" y="451.640295"/>
      </g>
     </g>
     <g id="text_2">
      <!-- 2023-09 -->
      <g transform="translate(334.368932 521.492365)rotate(-45)scale(0.18 -0.18)">
       <defs>
        <path d="M 703 97 
L 703 672 
Q 941 559 1184 500 
Q 1428 441 1663 441 
Q 2288 441 2617 861 
Q 2947 1281 2994 2138 
Q 2813 1869 2534 1725 
Q 2256 1581 1919 1581 
Q 1219 1581 811 2004 
Q 403 2428 403 3163 
Q 403 3881 828 4315 
Q 1253 4750 1959 4750 
Q 2769 4750 3195 4129 
Q 3622 3509 3622 2328 
Q 3622 1225 3098 567 
Q 2575 -91 1691 -91 
Q 1453 -91 1209 -44 
Q 966 3 703 97 
z
M 1959 2075 
Q 2384 2075 2632 2365 
Q 2881 2656 2881 3163 
Q 2881 3666 2632 3958 
Q 2384 4250 1959 4250 
Q 1534 4250 1286 3958 
Q 1038 3666 1038 3163 
Q 1038 2656 1286 2365 
Q 1534 2075 1959 2075 
z
" id="DejaVuSans-39" transform="scale(0.015625)"/>
       </defs>
       <use xlink:href="#DejaVuSans-32"/>
       <use x="63.623047" xlink:href="#DejaVuSans-30"/>
       <use x="127.246094" xlink:href="#DejaVuSans-32"/>
       <use x="190.869141" xlink:href="#DejaVuSans-33"/>
       <use x="254.492188" xlink:href="#DejaVuSans-2d"/>
       <use x="290.576172" xlink:href="#DejaVuSans-30"/>
       <use x="354.199219" xlink:href="#DejaVuSans-39"/>
      </g>
     </g>
    </g>
    <g id="xtick_3">
     <g id="line2d_5">
      <path clip-path="url(#p9c1d8e1f4c)" d="M 505.658514 451.640295 
L 505.658514 19.44 
" style="fill:none;stroke:#b0b0b0;stroke-dasharray:1.85,0.8;stroke-dashoffset:0;stroke-opacity:0.7;stroke-width:0.5;"/>
     </g>
     <g id="line2d_6">
      <g>
       <use style="stroke:#000000;stroke-width:0.8;" x="505.658514" xlink:href="#m1934196e8f" y="451.640295"/>
      </g>
     </g>
     <g id="text_3">
      <!-- 2023-11 -->
      <g transform="translate(482.580206 521.492365)rotate(-45)scale(0.18 -0.18)">
       <defs>
        <path d="M 794 531 
L 1825 531 
L 1825 4091 
L 703 3866 
L 703 4441 
L 1819 4666 
L 2450 4666 
L 2450 531 
L 3481 531 
L 3481 0 
L 794 0 
L 794 531 
z
" id="DejaVuSans-31" transform="scale(0.015625)"/>
       </defs>
       <use xlink:href="#DejaVuSans-32"/>
       <use x="63.623047" xlink:href="#DejaVuSans-30"/>
       <use x="127.246094" xlink:href="#DejaVuSans-32"/>
       <use x="190.869141" xlink:href="#DejaVuSans-33"/>
       <use x="254.492188" xlink:href="#DejaVuSans-2d"/>
       <use x="290.576172" xlink:href="#DejaVuSans-31"/>
       <use x="354.199219" xlink:href="#DejaVuSans-31"/>
      </g>
     </g>
    </g>
    <g id="xtick_4">
     <g id="line2d_7">
      <path clip-path="url(#p9c1d8e1f4c)" d="M 653.869788 451.640295 
L 653.869788 19.44 
" style="fill:none;stroke:#b0b0b0;stroke-dasharray:1.85,0.8;stroke-dashoffset:0;stroke-opacity:0.7;stroke-width:0.5;"/>
     </g>
     <g id="line2d_8">
      <g>
       <use style="stroke:#000000;stroke-width:0.8;" x="653.869788" xlink:href="#m1934196e8f" y="451.640295"/>
      </g>
     </g>
     <g id="text_4">
      <!-- 2024-01 -->
      <g transform="translate(630.79148 521.492365)rotate(-45)scale(0.18 -0.18)">
       <defs>
        <path d="M 2419 4116 
L 825 1625 
L 2419 1625 
L 2419 4116 
z
M 2253 4666 
L 3047 4666 
L 3047 1625 
L 3713 1625 
L 3713 1100 
L 3047 1100 
L 3047 0 
L 2419 0 
L 2419 1100 
L 313 1100 
L 313 1709 
L 2253 4666 
z
" id="DejaVuSans-34" transform="scale(0.015625)"/>
       </defs>
       <use xlink:href="#DejaVuSans-32"/>
       <use x="63.623047" xlink:href="#DejaVuSans-30"/>
       <use x="127.246094" xlink:href="#DejaVuSans-32"/>
       <use x="190.869141" xlink:href="#DejaVuSans-34"/>
       <use x="254.492188" xlink:href="#DejaVuSans-2d"/>
       <use x="290.576172" xlink:href="#DejaVuSans-30"/>
       <use x="354.199219" xlink:href="#DejaVuSans-31"/>
      </g>
     </g>
    </g>
    <g id="xtick_5">
     <g id="line2d_9">
      <path clip-path="url(#p9c1d8e1f4c)" d="M 799.651368 451.640295 
L 799.651368 19.44 
" style="fill:none;stroke:#b0b0b0;stroke-dasharray:1.85,0.8;stroke-dashoffset:0;stroke-opacity:0.7;stroke-width:0.5;"/>
     </g>
     <g id="line2d_10">
      <g>
       <use style="stroke:#000000;stroke-width:0.8;" x="799.651368" xlink:href="#m1934196e8f" y="451.640295"/>
      </g>
     </g>
     <g id="text_5">
      <!-- 2024-03 -->
      <g transform="translate(776.57306 521.492365)rotate(-45)scale(0.18 -0.18)">
       <use xlink:href="#DejaVuSans-32"/>
       <use x="63.623047" xlink:href="#DejaVuSans-30"/>
       <use x="127.246094" xlink:href="#DejaVuSans-32"/>
       <use x="190.869141" xlink:href="#DejaVuSans-34"/>
       <use x="254.492188" xlink:href="#DejaVuSans-2d"/>
       <use x="290.576172" xlink:href="#DejaVuSans-30"/>
       <use x="354.199219" xlink:href="#DejaVuSans-33"/>
      </g>
     </g>
    </g>
    <g id="xtick_6">
     <g id="line2d_11">
      <path clip-path="url(#p9c1d8e1f4c)" d="M 947.862642 451.640295 
L 947.862642 19.44 
" style="fill:none;stroke:#b0b0b0;stroke-dasharray:1.85,0.8;stroke-dashoffset:0;stroke-opacity:0.7;stroke-width:0.5;"/>
     </g>
     <g id="line2d_12">
      <g>
       <use style="stroke:#000000;stroke-width:0.8;" x="947.862642" xlink:href="#m1934196e8f" y="451.640295"/>
      </g>
     </g>
     <g id="text_6">
      <!-- 2024-05 -->
      <g transform="translate(924.784334 521.492365)rotate(-45)scale(0.18 -0.18)">
       <defs>
        <path d="M 691 4666 
L 3169 4666 
L 3169 4134 
L 1269 4134 
L 1269 2991 
Q 1406 3038 1543 3061 
Q 1681 3084 1819 3084 
Q 2600 3084 3056 2656 
Q 3513 2228 3513 1497 
Q 3513 744 3044 326 
Q 2575 -91 1722 -91 
Q 1428 -91 1123 -41 
Q 819 9 494 109 
L 494 744 
Q 775 591 1075 516 
Q 1375 441 1709 441 
Q 2250 441 2565 725 
Q 2881 1009 2881 1497 
Q 2881 1984 2565 2268 
Q 2250 2553 1709 2553 
Q 1456 2553 1204 2497 
Q 953 2441 691 2322 
L 691 4666 
z
" id="DejaVuSans-35" transform="scale(0.015625)"/>
       </defs>
       <use xlink:href="#DejaVuSans-32"/>
       <use x="63.623047" xlink:href="#DejaVuSans-30"/>
       <use x="127.246094" xlink:href="#DejaVuSans-32"/>
       <use x="190.869141" xlink:href="#DejaVuSans-34"/>
       <use x="254.492188" xlink:href="#DejaVuSans-2d"/>
       <use x="290.576172" xlink:href="#DejaVuSans-30"/>
       <use x="354.199219" xlink:href="#DejaVuSans-35"/>
      </g>
     </g>
    </g>
    <g id="text_7">
     <!-- Date -->
     <g transform="translate(519.377656 552.816563)scale(0.18 -0.18)">
      <defs>
       <path d="M 1259 4147 
L 1259 519 
L 2022 519 
Q 2988 519 3436 956 
Q 3884 1394 3884 2338 
Q 3884 3275 3436 3711 
Q 2988 4147 2022 4147 
L 1259 4147 
z
M 628 4666 
L 1925 4666 
Q 3281 4666 3915 4102 
Q 4550 3538 4550 2338 
Q 4550 1131 3912 565 
Q 3275 0 1925 0 
L 628 0 
L 628 4666 
z
" id="DejaVuSans-44" transform="scale(0.015625)"/>
       <path d="M 2194 1759 
Q 1497 1759 1228 1600 
Q 959 1441 959 1056 
Q 959 750 1161 570 
Q 1363 391 1709 391 
Q 2188 391 2477 730 
Q 2766 1069 2766 1631 
L 2766 1759 
L 2194 1759 
z
M 3341 1997 
L 3341 0 
L 2766 0 
L 2766 531 
Q 2569 213 2275 61 
Q 1981 -91 1556 -91 
Q 1019 -91 701 211 
Q 384 513 384 1019 
Q 384 1609 779 1909 
Q 1175 2209 1959 2209 
L 2766 2209 
L 2766 2266 
Q 2766 2663 2505 2880 
Q 2244 3097 1772 3097 
Q 1472 3097 1187 3025 
Q 903 2953 641 2809 
L 641 3341 
Q 956 3463 1253 3523 
Q 1550 3584 1831 3584 
Q 2591 3584 2966 3190 
Q 3341 2797 3341 1997 
z
" id="DejaVuSans-61" transform="scale(0.015625)"/>
       <path d="M 1172 4494 
L 1172 3500 
L 2356 3500 
L 2356 3053 
L 1172 3053 
L 1172 1153 
Q 1172 725 1289 603 
Q 1406 481 1766 481 
L 2356 481 
L 2356 0 
L 1766 0 
Q 1100 0 847 248 
Q 594 497 594 1153 
L 594 3053 
L 172 3053 
L 172 3500 
L 594 3500 
L 594 4494 
L 1172 4494 
z
" id="DejaVuSans-74" transform="scale(0.015625)"/>
       <path d="M 3597 1894 
L 3597 1613 
L 953 1613 
Q 991 1019 1311 708 
Q 1631 397 2203 397 
Q 2534 397 2845 478 
Q 3156 559 3463 722 
L 3463 178 
Q 3153 47 2828 -22 
Q 2503 -91 2169 -91 
Q 1331 -91 842 396 
Q 353 884 353 1716 
Q 353 2575 817 3079 
Q 1281 3584 2069 3584 
Q 2775 3584 3186 3129 
Q 3597 2675 3597 1894 
z
M 3022 2063 
Q 3016 2534 2758 2815 
Q 2500 3097 2075 3097 
Q 1594 3097 1305 2825 
Q 1016 2553 972 2059 
L 3022 2063 
z
" id="DejaVuSans-65" transform="scale(0.015625)"/>
      </defs>
      <use xlink:href="#DejaVuSans-44"/>
      <use x="77.001953" xlink:href="#DejaVuSans-61"/>
      <use x="138.28125" xlink:href="#DejaVuSans-74"/>
      <use x="177.490234" xlink:href="#DejaVuSans-65"/>
     </g>
    </g>
   </g>
   <g id="matplotlib.axis_2">
    <g id="ytick_1">
     <g id="line2d_13">
      <path clip-path="url(#p9c1d8e1f4c)" d="M 93.218125 440.787271 
L 988.56 440.787271 
" style="fill:none;stroke:#b0b0b0;stroke-dasharray:1.85,0.8;stroke-dashoffset:0;stroke-opacity:0.7;stroke-width:0.5;"/>
     </g>
     <g id="line2d_14">
      <defs>
       <path d="M 0 0 
L -3.5 0 
" id="m31e9fbe40f" style="stroke:#000000;stroke-width:0.8;"/>
      </defs>
      <g>
       <use style="stroke:#000000;stroke-width:0.8;" x="93.218125" xlink:href="#m31e9fbe40f" y="440.787271"/>
      </g>
     </g>
     <g id="text_8">
      <!-- 75 -->
      <g transform="translate(63.313125 447.625865)scale(0.18 -0.18)">
       <use xlink:href="#DejaVuSans-37"/>
       <use x="63.623047" xlink:href="#DejaVuSans-35"/>
      </g>
     </g>
    </g>
    <g id="ytick_2">
     <g id="line2d_15">
      <path clip-path="url(#p9c1d8e1f4c)" d="M 93.218125 358.251749 
L 988.56 358.251749 
" style="fill:none;stroke:#b0b0b0;stroke-dasharray:1.85,0.8;stroke-dashoffset:0;stroke-opacity:0.7;stroke-width:0.5;"/>
     </g>
     <g id="line2d_16">
      <g>
       <use style="stroke:#000000;stroke-width:0.8;" x="93.218125" xlink:href="#m31e9fbe40f" y="358.251749"/>
      </g>
     </g>
     <g id="text_9">
      <!-- 80 -->
      <g transform="translate(63.313125 365.090342)scale(0.18 -0.18)">
       <defs>
        <path d="M 2034 2216 
Q 1584 2216 1326 1975 
Q 1069 1734 1069 1313 
Q 1069 891 1326 650 
Q 1584 409 2034 409 
Q 2484 409 2743 651 
Q 3003 894 3003 1313 
Q 3003 1734 2745 1975 
Q 2488 2216 2034 2216 
z
M 1403 2484 
Q 997 2584 770 2862 
Q 544 3141 544 3541 
Q 544 4100 942 4425 
Q 1341 4750 2034 4750 
Q 2731 4750 3128 4425 
Q 3525 4100 3525 3541 
Q 3525 3141 3298 2862 
Q 3072 2584 2669 2484 
Q 3125 2378 3379 2068 
Q 3634 1759 3634 1313 
Q 3634 634 3220 271 
Q 2806 -91 2034 -91 
Q 1263 -91 848 271 
Q 434 634 434 1313 
Q 434 1759 690 2068 
Q 947 2378 1403 2484 
z
M 1172 3481 
Q 1172 3119 1398 2916 
Q 1625 2713 2034 2713 
Q 2441 2713 2670 2916 
Q 2900 3119 2900 3481 
Q 2900 3844 2670 4047 
Q 2441 4250 2034 4250 
Q 1625 4250 1398 4047 
Q 1172 3844 1172 3481 
z
" id="DejaVuSans-38" transform="scale(0.015625)"/>
       </defs>
       <use xlink:href="#DejaVuSans-38"/>
       <use x="63.623047" xlink:href="#DejaVuSans-30"/>
      </g>
     </g>
    </g>
    <g id="ytick_3">
     <g id="line2d_17">
      <path clip-path="url(#p9c1d8e1f4c)" d="M 93.218125 275.716227 
L 988.56 275.716227 
" style="fill:none;stroke:#b0b0b0;stroke-dasharray:1.85,0.8;stroke-dashoffset:0;stroke-opacity:0.7;stroke-width:0.5;"/>
     </g>
     <g id="line2d_18">
      <g>
       <use style="stroke:#000000;stroke-width:0.8;" x="93.218125" xlink:href="#m31e9fbe40f" y="275.716227"/>
      </g>
     </g>
     <g id="text_10">
      <!-- 85 -->
      <g transform="translate(63.313125 282.55482)scale(0.18 -0.18)">
       <use xlink:href="#DejaVuSans-38"/>
       <use x="63.623047" xlink:href="#DejaVuSans-35"/>
      </g>
     </g>
    </g>
    <g id="ytick_4">
     <g id="line2d_19">
      <path clip-path="url(#p9c1d8e1f4c)" d="M 93.218125 193.180704 
L 988.56 193.180704 
" style="fill:none;stroke:#b0b0b0;stroke-dasharray:1.85,0.8;stroke-dashoffset:0;stroke-opacity:0.7;stroke-width:0.5;"/>
     </g>
     <g id="line2d_20">
      <g>
       <use style="stroke:#000000;stroke-width:0.8;" x="93.218125" xlink:href="#m31e9fbe40f" y="193.180704"/>
      </g>
     </g>
     <g id="text_11">
      <!-- 90 -->
      <g transform="translate(63.313125 200.019298)scale(0.18 -0.18)">
       <use xlink:href="#DejaVuSans-39"/>
       <use x="63.623047" xlink:href="#DejaVuSans-30"/>
      </g>
     </g>
    </g>
    <g id="ytick_5">
     <g id="line2d_21">
      <path clip-path="url(#p9c1d8e1f4c)" d="M 93.218125 110.645182 
L 988.56 110.645182 
" style="fill:none;stroke:#b0b0b0;stroke-dasharray:1.85,0.8;stroke-dashoffset:0;stroke-opacity:0.7;stroke-width:0.5;"/>
     </g>
     <g id="line2d_22">
      <g>
       <use style="stroke:#000000;stroke-width:0.8;" x="93.218125" xlink:href="#m31e9fbe40f" y="110.645182"/>
      </g>
     </g>
     <g id="text_12">
      <!-- 95 -->
      <g transform="translate(63.313125 117.483776)scale(0.18 -0.18)">
       <use xlink:href="#DejaVuSans-39"/>
       <use x="63.623047" xlink:href="#DejaVuSans-35"/>
      </g>
     </g>
    </g>
    <g id="ytick_6">
     <g id="line2d_23">
      <path clip-path="url(#p9c1d8e1f4c)" d="M 93.218125 28.10966 
L 988.56 28.10966 
" style="fill:none;stroke:#b0b0b0;stroke-dasharray:1.85,0.8;stroke-dashoffset:0;stroke-opacity:0.7;stroke-width:0.5;"/>
     </g>
     <g id="line2d_24">
      <g>
       <use style="stroke:#000000;stroke-width:0.8;" x="93.218125" xlink:href="#m31e9fbe40f" y="28.10966"/>
      </g>
     </g>
     <g id="text_13">
      <!-- 100 -->
      <g transform="translate(51.860625 34.948254)scale(0.18 -0.18)">
       <use xlink:href="#DejaVuSans-31"/>
       <use x="63.623047" xlink:href="#DejaVuSans-30"/>
       <use x="127.246094" xlink:href="#DejaVuSans-30"/>
      </g>
     </g>
    </g>
    <g id="text_14">
     <!-- Network Availability (%) -->
     <g transform="translate(33.117188 343.468429)rotate(-90)scale(0.18 -0.18)">
      <defs>
       <path d="M 628 4666 
L 1478 4666 
L 3547 763 
L 3547 4666 
L 4159 4666 
L 4159 0 
L 3309 0 
L 1241 3903 
L 1241 0 
L 628 0 
L 628 4666 
z
" id="DejaVuSans-4e" transform="scale(0.015625)"/>
       <path d="M 269 3500 
L 844 3500 
L 1563 769 
L 2278 3500 
L 2956 3500 
L 3675 769 
L 4391 3500 
L 4966 3500 
L 4050 0 
L 3372 0 
L 2619 2869 
L 1863 0 
L 1184 0 
L 269 3500 
z
" id="DejaVuSans-77" transform="scale(0.015625)"/>
       <path d="M 1959 3097 
Q 1497 3097 1228 2736 
Q 959 2375 959 1747 
Q 959 1119 1226 758 
Q 1494 397 1959 397 
Q 2419 397 2687 759 
Q 2956 1122 2956 1747 
Q 2956 2369 2687 2733 
Q 2419 3097 1959 3097 
z
M 1959 3584 
Q 2709 3584 3137 3096 
Q 3566 2609 3566 1747 
Q 3566 888 3137 398 
Q 2709 -91 1959 -91 
Q 1206 -91 779 398 
Q 353 888 353 1747 
Q 353 2609 779 3096 
Q 1206 3584 1959 3584 
z
" id="DejaVuSans-6f" transform="scale(0.015625)"/>
       <path d="M 2631 2963 
Q 2534 3019 2420 3045 
Q 2306 3072 2169 3072 
Q 1681 3072 1420 2755 
Q 1159 2438 1159 1844 
L 1159 0 
L 581 0 
L 581 3500 
L 1159 3500 
L 1159 2956 
Q 1341 3275 1631 3429 
Q 1922 3584 2338 3584 
Q 2397 3584 2469 3576 
Q 2541 3569 2628 3553 
L 2631 2963 
z
" id="DejaVuSans-72" transform="scale(0.015625)"/>
       <path d="M 581 4863 
L 1159 4863 
L 1159 1991 
L 2875 3500 
L 3609 3500 
L 1753 1863 
L 3688 0 
L 2938 0 
L 1159 1709 
L 1159 0 
L 581 0 
L 581 4863 
z
" id="DejaVuSans-6b" transform="scale(0.015625)"/>
       <path id="DejaVuSans-20" transform="scale(0.015625)"/>
       <path d="M 2188 4044 
L 1331 1722 
L 3047 1722 
L 2188 4044 
z
M 1831 4666 
L 2547 4666 
L 4325 0 
L 3669 0 
L 3244 1197 
L 1141 1197 
L 716 0 
L 50 0 
L 1831 4666 
z
" id="DejaVuSans-41" transform="scale(0.015625)"/>
       <path d="M 191 3500 
L 800 3500 
L 1894 563 
L 2988 3500 
L 3597 3500 
L 2284 0 
L 1503 0 
L 191 3500 
z
" id="DejaVuSans-76" transform="scale(0.015625)"/>
       <path d="M 603 3500 
L 1178 3500 
L 1178 0 
L 603 0 
L 603 3500 
z
M 603 4863 
L 1178 4863 
L 1178 4134 
L 603 4134 
L 603 4863 
z
" id="DejaVuSans-69" transform="scale(0.015625)"/>
       <path d="M 603 4863 
L 1178 4863 
L 1178 0 
L 603 0 
L 603 4863 
z
" id="DejaVuSans-6c" transform="scale(0.015625)"/>
       <path d="M 3116 1747 
Q 3116 2381 2855 2742 
Q 2594 3103 2138 3103 
Q 1681 3103 1420 2742 
Q 1159 2381 1159 1747 
Q 1159 1113 1420 752 
Q 1681 391 2138 391 
Q 2594 391 2855 752 
Q 3116 1113 3116 1747 
z
M 1159 2969 
Q 1341 3281 1617 3432 
Q 1894 3584 2278 3584 
Q 2916 3584 3314 3078 
Q 3713 2572 3713 1747 
Q 3713 922 3314 415 
Q 2916 -91 2278 -91 
Q 1894 -91 1617 61 
Q 1341 213 1159 525 
L 1159 0 
L 581 0 
L 581 4863 
L 1159 4863 
L 1159 2969 
z
" id="DejaVuSans-62" transform="scale(0.015625)"/>
       <path d="M 2059 -325 
Q 1816 -950 1584 -1140 
Q 1353 -1331 966 -1331 
L 506 -1331 
L 506 -850 
L 844 -850 
Q 1081 -850 1212 -737 
Q 1344 -625 1503 -206 
L 1606 56 
L 191 3500 
L 800 3500 
L 1894 763 
L 2988 3500 
L 3597 3500 
L 2059 -325 
z
" id="DejaVuSans-79" transform="scale(0.015625)"/>
       <path d="M 1984 4856 
Q 1566 4138 1362 3434 
Q 1159 2731 1159 2009 
Q 1159 1288 1364 580 
Q 1569 -128 1984 -844 
L 1484 -844 
Q 1016 -109 783 600 
Q 550 1309 550 2009 
Q 550 2706 781 3412 
Q 1013 4119 1484 4856 
L 1984 4856 
z
" id="DejaVuSans-28" transform="scale(0.015625)"/>
       <path d="M 4653 2053 
Q 4381 2053 4226 1822 
Q 4072 1591 4072 1178 
Q 4072 772 4226 539 
Q 4381 306 4653 306 
Q 4919 306 5073 539 
Q 5228 772 5228 1178 
Q 5228 1588 5073 1820 
Q 4919 2053 4653 2053 
z
M 4653 2450 
Q 5147 2450 5437 2106 
Q 5728 1763 5728 1178 
Q 5728 594 5436 251 
Q 5144 -91 4653 -91 
Q 4153 -91 3862 251 
Q 3572 594 3572 1178 
Q 3572 1766 3864 2108 
Q 4156 2450 4653 2450 
z
M 1428 4353 
Q 1159 4353 1004 4120 
Q 850 3888 850 3481 
Q 850 3069 1003 2837 
Q 1156 2606 1428 2606 
Q 1700 2606 1854 2837 
Q 2009 3069 2009 3481 
Q 2009 3884 1853 4118 
Q 1697 4353 1428 4353 
z
M 4250 4750 
L 4750 4750 
L 1831 -91 
L 1331 -91 
L 4250 4750 
z
M 1428 4750 
Q 1922 4750 2215 4408 
Q 2509 4066 2509 3481 
Q 2509 2891 2217 2550 
Q 1925 2209 1428 2209 
Q 931 2209 642 2551 
Q 353 2894 353 3481 
Q 353 4063 643 4406 
Q 934 4750 1428 4750 
z
" id="DejaVuSans-25" transform="scale(0.015625)"/>
       <path d="M 513 4856 
L 1013 4856 
Q 1481 4119 1714 3412 
Q 1947 2706 1947 2009 
Q 1947 1309 1714 600 
Q 1481 -109 1013 -844 
L 513 -844 
Q 928 -128 1133 580 
Q 1338 1288 1338 2009 
Q 1338 2731 1133 3434 
Q 928 4138 513 4856 
z
" id="DejaVuSans-29" transform="scale(0.015625)"/>
      </defs>
      <use xlink:href="#DejaVuSans-4e"/>
      <use x="74.804688" xlink:href="#DejaVuSans-65"/>
      <use x="136.328125" xlink:href="#DejaVuSans-74"/>
      <use x="175.537109" xlink:href="#DejaVuSans-77"/>
      <use x="257.324219" xlink:href="#DejaVuSans-6f"/>
      <use x="318.505859" xlink:href="#DejaVuSans-72"/>
      <use x="359.619141" xlink:href="#DejaVuSans-6b"/>
      <use x="417.529297" xlink:href="#DejaVuSans-20"/>
      <use x="449.316406" xlink:href="#DejaVuSans-41"/>
      <use x="511.849609" xlink:href="#DejaVuSans-76"/>
      <use x="571.029297" xlink:href="#DejaVuSans-61"/>
      <use x="632.308594" xlink:href="#DejaVuSans-69"/>
      <use x="660.091797" xlink:href="#DejaVuSans-6c"/>
      <use x="687.875" xlink:href="#DejaVuSans-61"/>
      <use x="749.154297" xlink:href="#DejaVuSans-62"/>
      <use x="812.630859" xlink:href="#DejaVuSans-69"/>
      <use x="840.414062" xlink:href="#DejaVuSans-6c"/>
      <use x="868.197266" xlink:href="#DejaVuSans-69"/>
      <use x="895.980469" xlink:href="#DejaVuSans-74"/>
      <use x="935.189453" xlink:href="#DejaVuSans-79"/>
      <use x="994.369141" xlink:href="#DejaVuSans-20"/>
      <use x="1026.15625" xlink:href="#DejaVuSans-28"/>
      <use x="1065.169922" xlink:href="#DejaVuSans-25"/>
      <use x="1160.189453" xlink:href="#DejaVuSans-29"/>
     </g>
    </g>
   </g>
   <g id="line2d_25">
    <path clip-path="url(#p9c1d8e1f4c)" d="M 133.915483 372.551475 
L 206.806273 293.255368 
L 282.126757 328.937503 
L 357.44724 431.994827 
L 430.33803 330.035415 
L 505.658514 379.240163 
L 578.549304 213.107804 
L 653.869788 363.521725 
L 729.190271 117.305532 
L 799.651368 358.032166 
L 874.971852 191.478941 
L 947.862642 176.876714 
" style="fill:none;stroke:#000000;stroke-linecap:square;stroke-width:2.5;"/>
    <defs>
     <path d="M 0 4 
C 1.060812 4 2.078319 3.578535 2.828427 2.828427 
C 3.578535 2.078319 4 1.060812 4 0 
C 4 -1.060812 3.578535 -2.078319 2.828427 -2.828427 
C 2.078319 -3.578535 1.060812 -4 0 -4 
C -1.060812 -4 -2.078319 -3.578535 -2.828427 -2.828427 
C -3.578535 -2.078319 -4 -1.060812 -4 0 
C -4 1.060812 -3.578535 2.078319 -2.828427 2.828427 
C -2.078319 3.578535 -1.060812 4 0 4 
z
" id="m3a9c302063" style="stroke:#000000;"/>
    </defs>
    <g clip-path="url(#p9c1d8e1f4c)">
     <use style="stroke:#000000;" x="133.915483" xlink:href="#m3a9c302063" y="372.551475"/>
     <use style="stroke:#000000;" x="206.806273" xlink:href="#m3a9c302063" y="293.255368"/>
     <use style="stroke:#000000;" x="282.126757" xlink:href="#m3a9c302063" y="328.937503"/>
     <use style="stroke:#000000;" x="357.44724" xlink:href="#m3a9c302063" y="431.994827"/>
     <use style="stroke:#000000;" x="430.33803" xlink:href="#m3a9c302063" y="330.035415"/>
     <use style="stroke:#000000;" x="505.658514" xlink:href="#m3a9c302063" y="379.240163"/>
     <use style="stroke:#000000;" x="578.549304" xlink:href="#m3a9c302063" y="213.107804"/>
     <use style="stroke:#000000;" x="653.869788" xlink:href="#m3a9c302063" y="363.521725"/>
     <use style="stroke:#000000;" x="729.190271" xlink:href="#m3a9c302063" y="117.305532"/>
     <use style="stroke:#000000;" x="799.651368" xlink:href="#m3a9c302063" y="358.032166"/>
     <use style="stroke:#000000;" x="874.971852" xlink:href="#m3a9c302063" y="191.478941"/>
     <use style="stroke:#000000;" x="947.862642" xlink:href="#m3a9c302063" y="176.876714"/>
    </g>
   </g>
   <g id="line2d_26">
    <path clip-path="url(#p9c1d8e1f4c)" d="M 133.915483 231.035141 
L 206.806273 192.508633 
L 282.126757 210.60286 
L 357.44724 336.349118 
L 430.33803 202.331213 
L 505.658514 232.712281 
L 578.549304 152.184357 
L 653.869788 201.814235 
L 729.190271 73.425447 
L 799.651368 203.882147 
L 874.971852 118.925445 
L 947.862642 125.301506 
" style="fill:none;stroke:#ff0000;stroke-linecap:square;stroke-width:2.5;"/>
    <defs>
     <path d="M -4 4 
L 4 4 
L 4 -4 
L -4 -4 
z
" id="m9e3111d65c" style="stroke:#ff0000;stroke-linejoin:miter;"/>
    </defs>
    <g clip-path="url(#p9c1d8e1f4c)">
     <use style="fill:#ff0000;stroke:#ff0000;stroke-linejoin:miter;" x="133.915483" xlink:href="#m9e3111d65c" y="231.035141"/>
     <use style="fill:#ff0000;stroke:#ff0000;stroke-linejoin:miter;" x="206.806273" xlink:href="#m9e3111d65c" y="192.508633"/>
     <use style="fill:#ff0000;stroke:#ff0000;stroke-linejoin:miter;" x="282.126757" xlink:href="#m9e3111d65c" y="210.60286"/>
     <use style="fill:#ff0000;stroke:#ff0000;stroke-linejoin:miter;" x="357.44724" xlink:href="#m9e3111d65c" y="336.349118"/>
     <use style="fill:#ff0000;stroke:#ff0000;stroke-linejoin:miter;" x="430.33803" xlink:href="#m9e3111d65c" y="202.331213"/>
     <use style="fill:#ff0000;stroke:#ff0000;stroke-linejoin:miter;" x="505.658514" xlink:href="#m9e3111d65c" y="232.712281"/>
     <use style="fill:#ff0000;stroke:#ff0000;stroke-linejoin:miter;" x="578.549304" xlink:href="#m9e3111d65c" y="152.184357"/>
     <use style="fill:#ff0000;stroke:#ff0000;stroke-linejoin:miter;" x="653.869788" xlink:href="#m9e3111d65c" y="201.814235"/>
     <use style="fill:#ff0000;stroke:#ff0000;stroke-linejoin:miter;" x="729.190271" xlink:href="#m9e3111d65c" y="73.425447"/>
     <use style="fill:#ff0000;stroke:#ff0000;stroke-linejoin:miter;" x="799.651368" xlink:href="#m9e3111d65c" y="203.882147"/>
     <use style="fill:#ff0000;stroke:#ff0000;stroke-linejoin:miter;" x="874.971852" xlink:href="#m9e3111d65c" y="118.925445"/>
     <use style="fill:#ff0000;stroke:#ff0000;stroke-linejoin:miter;" x="947.862642" xlink:href="#m9e3111d65c" y="125.301506"/>
    </g>
   </g>
   <g id="line2d_27">
    <path clip-path="url(#p9c1d8e1f4c)" d="M 133.915483 177.062362 
L 206.806273 119.0937 
L 282.126757 125.802201 
L 357.44724 202.712366 
L 430.33803 138.799921 
L 505.658514 163.285948 
L 578.549304 78.423415 
L 653.869788 123.705794 
L 729.190271 55.001495 
L 799.651368 142.992734 
L 874.971852 54.971615 
L 947.862642 89.324729 
" style="fill:none;stroke:#008000;stroke-linecap:square;stroke-width:2.5;"/>
    <defs>
     <path d="M 0 -4 
L -4 4 
L 4 4 
z
" id="m78b1cbc5e6" style="stroke:#008000;stroke-linejoin:miter;"/>
    </defs>
    <g clip-path="url(#p9c1d8e1f4c)">
     <use style="fill:#008000;stroke:#008000;stroke-linejoin:miter;" x="133.915483" xlink:href="#m78b1cbc5e6" y="177.062362"/>
     <use style="fill:#008000;stroke:#008000;stroke-linejoin:miter;" x="206.806273" xlink:href="#m78b1cbc5e6" y="119.0937"/>
     <use style="fill:#008000;stroke:#008000;stroke-linejoin:miter;" x="282.126757" xlink:href="#m78b1cbc5e6" y="125.802201"/>
     <use style="fill:#008000;stroke:#008000;stroke-linejoin:miter;" x="357.44724" xlink:href="#m78b1cbc5e6" y="202.712366"/>
     <use style="fill:#008000;stroke:#008000;stroke-linejoin:miter;" x="430.33803" xlink:href="#m78b1cbc5e6" y="138.799921"/>
     <use style="fill:#008000;stroke:#008000;stroke-linejoin:miter;" x="505.658514" xlink:href="#m78b1cbc5e6" y="163.285948"/>
     <use style="fill:#008000;stroke:#008000;stroke-linejoin:miter;" x="578.549304" xlink:href="#m78b1cbc5e6" y="78.423415"/>
     <use style="fill:#008000;stroke:#008000;stroke-linejoin:miter;" x="653.869788" xlink:href="#m78b1cbc5e6" y="123.705794"/>
     <use style="fill:#008000;stroke:#008000;stroke-linejoin:miter;" x="729.190271" xlink:href="#m78b1cbc5e6" y="55.001495"/>
     <use style="fill:#008000;stroke:#008000;stroke-linejoin:miter;" x="799.651368" xlink:href="#m78b1cbc5e6" y="142.992734"/>
     <use style="fill:#008000;stroke:#008000;stroke-linejoin:miter;" x="874.971852" xlink:href="#m78b1cbc5e6" y="54.971615"/>
     <use style="fill:#008000;stroke:#008000;stroke-linejoin:miter;" x="947.862642" xlink:href="#m78b1cbc5e6" y="89.324729"/>
    </g>
   </g>
   <g id="line2d_28">
    <path clip-path="url(#p9c1d8e1f4c)" d="M 133.915483 141.795645 
L 206.806273 72.045827 
L 282.126757 64.404755 
L 357.44724 176.648926 
L 430.33803 83.029869 
L 505.658514 143.585368 
L 578.549304 41.242754 
L 653.869788 65.121105 
L 729.190271 39.085468 
L 799.651368 107.385787 
L 874.971852 41.680523 
L 947.862642 42.197888 
" style="fill:none;stroke:#0000ff;stroke-linecap:square;stroke-width:2.5;"/>
    <defs>
     <path d="M -0 5.656854 
L 5.656854 0 
L 0 -5.656854 
L -5.656854 -0 
z
" id="m36b1f0d7c4" style="stroke:#0000ff;stroke-linejoin:miter;"/>
    </defs>
    <g clip-path="url(#p9c1d8e1f4c)">
     <use style="fill:#0000ff;stroke:#0000ff;stroke-linejoin:miter;" x="133.915483" xlink:href="#m36b1f0d7c4" y="141.795645"/>
     <use style="fill:#0000ff;stroke:#0000ff;stroke-linejoin:miter;" x="206.806273" xlink:href="#m36b1f0d7c4" y="72.045827"/>
     <use style="fill:#0000ff;stroke:#0000ff;stroke-linejoin:miter;" x="282.126757" xlink:href="#m36b1f0d7c4" y="64.404755"/>
     <use style="fill:#0000ff;stroke:#0000ff;stroke-linejoin:miter;" x="357.44724" xlink:href="#m36b1f0d7c4" y="176.648926"/>
     <use style="fill:#0000ff;stroke:#0000ff;stroke-linejoin:miter;" x="430.33803" xlink:href="#m36b1f0d7c4" y="83.029869"/>
     <use style="fill:#0000ff;stroke:#0000ff;stroke-linejoin:miter;" x="505.658514" xlink:href="#m36b1f0d7c4" y="143.585368"/>
     <use style="fill:#0000ff;stroke:#0000ff;stroke-linejoin:miter;" x="578.549304" xlink:href="#m36b1f0d7c4" y="41.242754"/>
     <use style="fill:#0000ff;stroke:#0000ff;stroke-linejoin:miter;" x="653.869788" xlink:href="#m36b1f0d7c4" y="65.121105"/>
     <use style="fill:#0000ff;stroke:#0000ff;stroke-linejoin:miter;" x="729.190271" xlink:href="#m36b1f0d7c4" y="39.085468"/>
     <use style="fill:#0000ff;stroke:#0000ff;stroke-linejoin:miter;" x="799.651368" xlink:href="#m36b1f0d7c4" y="107.385787"/>
     <use style="fill:#0000ff;stroke:#0000ff;stroke-linejoin:miter;" x="874.971852" xlink:href="#m36b1f0d7c4" y="41.680523"/>
     <use style="fill:#0000ff;stroke:#0000ff;stroke-linejoin:miter;" x="947.862642" xlink:href="#m36b1f0d7c4" y="42.197888"/>
    </g>
   </g>
   <g id="line2d_29">
    <path clip-path="url(#p9c1d8e1f4c)" d="M 133.915483 296.361469 
L 206.806273 296.361469 
L 282.126757 296.361469 
L 357.44724 296.361469 
L 430.33803 296.361469 
L 505.658514 296.361469 
L 578.549304 296.361469 
L 653.869788 296.361469 
L 729.190271 296.361469 
L 799.651368 296.361469 
L 874.971852 296.361469 
L 947.862642 296.361469 
" style="fill:none;stroke:#000000;stroke-dasharray:7.4,3.2;stroke-dashoffset:0;stroke-opacity:0.7;stroke-width:2;"/>
   </g>
   <g id="line2d_30">
    <path clip-path="url(#p9c1d8e1f4c)" d="M 133.915483 190.089365 
L 206.806273 190.089365 
L 282.126757 190.089365 
L 357.44724 190.089365 
L 430.33803 190.089365 
L 505.658514 190.089365 
L 578.549304 190.089365 
L 653.869788 190.089365 
L 729.190271 190.089365 
L 799.651368 190.089365 
L 874.971852 190.089365 
L 947.862642 190.089365 
" style="fill:none;stroke:#ff0000;stroke-dasharray:7.4,3.2;stroke-dashoffset:0;stroke-opacity:0.7;stroke-width:2;"/>
   </g>
   <g id="line2d_31">
    <path clip-path="url(#p9c1d8e1f4c)" d="M 133.915483 122.598023 
L 206.806273 122.598023 
L 282.126757 122.598023 
L 357.44724 122.598023 
L 430.33803 122.598023 
L 505.658514 122.598023 
L 578.549304 122.598023 
L 653.869788 122.598023 
L 729.190271 122.598023 
L 799.651368 122.598023 
L 874.971852 122.598023 
L 947.862642 122.598023 
" style="fill:none;stroke:#008000;stroke-dasharray:7.4,3.2;stroke-dashoffset:0;stroke-opacity:0.7;stroke-width:2;"/>
   </g>
   <g id="line2d_32">
    <path clip-path="url(#p9c1d8e1f4c)" d="M 133.915483 84.851993 
L 206.806273 84.851993 
L 282.126757 84.851993 
L 357.44724 84.851993 
L 430.33803 84.851993 
L 505.658514 84.851993 
L 578.549304 84.851993 
L 653.869788 84.851993 
L 729.190271 84.851993 
L 799.651368 84.851993 
L 874.971852 84.851993 
L 947.862642 84.851993 
" style="fill:none;stroke:#0000ff;stroke-dasharray:7.4,3.2;stroke-dashoffset:0;stroke-opacity:0.7;stroke-width:2;"/>
   </g>
   <g id="patch_3">
    <path d="M 93.218125 451.640295 
L 93.218125 19.44 
" style="fill:none;stroke:#000000;stroke-linecap:square;stroke-linejoin:miter;stroke-width:0.8;"/>
   </g>
   <g id="patch_4">
    <path d="M 988.56 451.640295 
L 988.56 19.44 
" style="fill:none;stroke:#000000;stroke-linecap:square;stroke-linejoin:miter;stroke-width:0.8;"/>
   </g>
   <g id="patch_5">
    <path d="M 93.218125 451.640295 
L 988.56 451.640295 
" style="fill:none;stroke:#000000;stroke-linecap:square;stroke-linejoin:miter;stroke-width:0.8;"/>
   </g>
   <g id="patch_6">
    <path d="M 93.218125 19.44 
L 988.56 19.44 
" style="fill:none;stroke:#000000;stroke-linecap:square;stroke-linejoin:miter;stroke-width:0.8;"/>
   </g>
   <g id="legend_1">
    <g id="patch_7">
     <path d="M 666.993125 444.640295 
L 978.76 444.640295 
Q 981.56 444.640295 981.56 441.840295 
L 981.56 361.042795 
Q 981.56 358.242795 978.76 358.242795 
L 666.993125 358.242795 
Q 664.193125 358.242795 664.193125 361.042795 
L 664.193125 441.840295 
Q 664.193125 444.640295 666.993125 444.640295 
z
" style="fill:#ffffff;opacity:0.8;stroke:#cccccc;stroke-linejoin:miter;"/>
    </g>
    <g id="line2d_33">
     <path d="M 669.793125 369.580607 
L 697.793125 369.580607 
" style="fill:none;stroke:#000000;stroke-linecap:square;stroke-width:2.5;"/>
    </g>
    <g id="line2d_34">
     <g>
      <use style="stroke:#000000;" x="683.793125" xlink:href="#m3a9c302063" y="369.580607"/>
     </g>
    </g>
    <g id="text_15">
     <!-- config1 -->
     <g transform="translate(708.993125 374.480607)scale(0.14 -0.14)">
      <defs>
       <path d="M 3122 3366 
L 3122 2828 
Q 2878 2963 2633 3030 
Q 2388 3097 2138 3097 
Q 1578 3097 1268 2742 
Q 959 2388 959 1747 
Q 959 1106 1268 751 
Q 1578 397 2138 397 
Q 2388 397 2633 464 
Q 2878 531 3122 666 
L 3122 134 
Q 2881 22 2623 -34 
Q 2366 -91 2075 -91 
Q 1284 -91 818 406 
Q 353 903 353 1747 
Q 353 2603 823 3093 
Q 1294 3584 2113 3584 
Q 2378 3584 2631 3529 
Q 2884 3475 3122 3366 
z
" id="DejaVuSans-63" transform="scale(0.015625)"/>
       <path d="M 3513 2113 
L 3513 0 
L 2938 0 
L 2938 2094 
Q 2938 2591 2744 2837 
Q 2550 3084 2163 3084 
Q 1697 3084 1428 2787 
Q 1159 2491 1159 1978 
L 1159 0 
L 581 0 
L 581 3500 
L 1159 3500 
L 1159 2956 
Q 1366 3272 1645 3428 
Q 1925 3584 2291 3584 
Q 2894 3584 3203 3211 
Q 3513 2838 3513 2113 
z
" id="DejaVuSans-6e" transform="scale(0.015625)"/>
       <path d="M 2375 4863 
L 2375 4384 
L 1825 4384 
Q 1516 4384 1395 4259 
Q 1275 4134 1275 3809 
L 1275 3500 
L 2222 3500 
L 2222 3053 
L 1275 3053 
L 1275 0 
L 697 0 
L 697 3053 
L 147 3053 
L 147 3500 
L 697 3500 
L 697 3744 
Q 697 4328 969 4595 
Q 1241 4863 1831 4863 
L 2375 4863 
z
" id="DejaVuSans-66" transform="scale(0.015625)"/>
       <path d="M 2906 1791 
Q 2906 2416 2648 2759 
Q 2391 3103 1925 3103 
Q 1463 3103 1205 2759 
Q 947 2416 947 1791 
Q 947 1169 1205 825 
Q 1463 481 1925 481 
Q 2391 481 2648 825 
Q 2906 1169 2906 1791 
z
M 3481 434 
Q 3481 -459 3084 -895 
Q 2688 -1331 1869 -1331 
Q 1566 -1331 1297 -1286 
Q 1028 -1241 775 -1147 
L 775 -588 
Q 1028 -725 1275 -790 
Q 1522 -856 1778 -856 
Q 2344 -856 2625 -561 
Q 2906 -266 2906 331 
L 2906 616 
Q 2728 306 2450 153 
Q 2172 0 1784 0 
Q 1141 0 747 490 
Q 353 981 353 1791 
Q 353 2603 747 3093 
Q 1141 3584 1784 3584 
Q 2172 3584 2450 3431 
Q 2728 3278 2906 2969 
L 2906 3500 
L 3481 3500 
L 3481 434 
z
" id="DejaVuSans-67" transform="scale(0.015625)"/>
      </defs>
      <use xlink:href="#DejaVuSans-63"/>
      <use x="54.980469" xlink:href="#DejaVuSans-6f"/>
      <use x="116.162109" xlink:href="#DejaVuSans-6e"/>
      <use x="179.541016" xlink:href="#DejaVuSans-66"/>
      <use x="214.746094" xlink:href="#DejaVuSans-69"/>
      <use x="242.529297" xlink:href="#DejaVuSans-67"/>
      <use x="306.005859" xlink:href="#DejaVuSans-31"/>
     </g>
    </g>
    <g id="line2d_35">
     <path d="M 669.793125 390.129982 
L 697.793125 390.129982 
" style="fill:none;stroke:#ff0000;stroke-linecap:square;stroke-width:2.5;"/>
    </g>
    <g id="line2d_36">
     <g>
      <use style="fill:#ff0000;stroke:#ff0000;stroke-linejoin:miter;" x="683.793125" xlink:href="#m9e3111d65c" y="390.129982"/>
     </g>
    </g>
    <g id="text_16">
     <!-- config2 -->
     <g transform="translate(708.993125 395.029982)scale(0.14 -0.14)">
      <use xlink:href="#DejaVuSans-63"/>
      <use x="54.980469" xlink:href="#DejaVuSans-6f"/>
      <use x="116.162109" xlink:href="#DejaVuSans-6e"/>
      <use x="179.541016" xlink:href="#DejaVuSans-66"/>
      <use x="214.746094" xlink:href="#DejaVuSans-69"/>
      <use x="242.529297" xlink:href="#DejaVuSans-67"/>
      <use x="306.005859" xlink:href="#DejaVuSans-32"/>
     </g>
    </g>
    <g id="line2d_37">
     <path d="M 669.793125 410.679357 
L 697.793125 410.679357 
" style="fill:none;stroke:#008000;stroke-linecap:square;stroke-width:2.5;"/>
    </g>
    <g id="line2d_38">
     <g>
      <use style="fill:#008000;stroke:#008000;stroke-linejoin:miter;" x="683.793125" xlink:href="#m78b1cbc5e6" y="410.679357"/>
     </g>
    </g>
    <g id="text_17">
     <!-- config3 -->
     <g transform="translate(708.993125 415.579357)scale(0.14 -0.14)">
      <use xlink:href="#DejaVuSans-63"/>
      <use x="54.980469" xlink:href="#DejaVuSans-6f"/>
      <use x="116.162109" xlink:href="#DejaVuSans-6e"/>
      <use x="179.541016" xlink:href="#DejaVuSans-66"/>
      <use x="214.746094" xlink:href="#DejaVuSans-69"/>
      <use x="242.529297" xlink:href="#DejaVuSans-67"/>
      <use x="306.005859" xlink:href="#DejaVuSans-33"/>
     </g>
    </g>
    <g id="line2d_39">
     <path d="M 669.793125 431.228732 
L 697.793125 431.228732 
" style="fill:none;stroke:#0000ff;stroke-linecap:square;stroke-width:2.5;"/>
    </g>
    <g id="line2d_40">
     <g>
      <use style="fill:#0000ff;stroke:#0000ff;stroke-linejoin:miter;" x="683.793125" xlink:href="#m36b1f0d7c4" y="431.228732"/>
     </g>
    </g>
    <g id="text_18">
     <!-- config4 -->
     <g transform="translate(708.993125 436.128732)scale(0.14 -0.14)">
      <use xlink:href="#DejaVuSans-63"/>
      <use x="54.980469" xlink:href="#DejaVuSans-6f"/>
      <use x="116.162109" xlink:href="#DejaVuSans-6e"/>
      <use x="179.541016" xlink:href="#DejaVuSans-66"/>
      <use x="214.746094" xlink:href="#DejaVuSans-69"/>
      <use x="242.529297" xlink:href="#DejaVuSans-67"/>
      <use x="306.005859" xlink:href="#DejaVuSans-34"/>
     </g>
    </g>
    <g id="line2d_41">
     <path d="M 788.742813 369.580607 
L 816.742813 369.580607 
" style="fill:none;stroke:#000000;stroke-dasharray:7.4,3.2;stroke-dashoffset:0;stroke-opacity:0.7;stroke-width:2;"/>
    </g>
    <g id="line2d_42"/>
    <g id="text_19">
     <!-- annual mean config1 -->
     <g transform="translate(827.942813 374.480607)scale(0.14 -0.14)">
      <defs>
       <path d="M 544 1381 
L 544 3500 
L 1119 3500 
L 1119 1403 
Q 1119 906 1312 657 
Q 1506 409 1894 409 
Q 2359 409 2629 706 
Q 2900 1003 2900 1516 
L 2900 3500 
L 3475 3500 
L 3475 0 
L 2900 0 
L 2900 538 
Q 2691 219 2414 64 
Q 2138 -91 1772 -91 
Q 1169 -91 856 284 
Q 544 659 544 1381 
z
M 1991 3584 
L 1991 3584 
z
" id="DejaVuSans-75" transform="scale(0.015625)"/>
       <path d="M 3328 2828 
Q 3544 3216 3844 3400 
Q 4144 3584 4550 3584 
Q 5097 3584 5394 3201 
Q 5691 2819 5691 2113 
L 5691 0 
L 5113 0 
L 5113 2094 
Q 5113 2597 4934 2840 
Q 4756 3084 4391 3084 
Q 3944 3084 3684 2787 
Q 3425 2491 3425 1978 
L 3425 0 
L 2847 0 
L 2847 2094 
Q 2847 2600 2669 2842 
Q 2491 3084 2119 3084 
Q 1678 3084 1418 2786 
Q 1159 2488 1159 1978 
L 1159 0 
L 581 0 
L 581 3500 
L 1159 3500 
L 1159 2956 
Q 1356 3278 1631 3431 
Q 1906 3584 2284 3584 
Q 2666 3584 2933 3390 
Q 3200 3197 3328 2828 
z
" id="DejaVuSans-6d" transform="scale(0.015625)"/>
      </defs>
      <use xlink:href="#DejaVuSans-61"/>
      <use x="61.279297" xlink:href="#DejaVuSans-6e"/>
      <use x="124.658203" xlink:href="#DejaVuSans-6e"/>
      <use x="188.037109" xlink:href="#DejaVuSans-75"/>
      <use x="251.416016" xlink:href="#DejaVuSans-61"/>
      <use x="312.695312" xlink:href="#DejaVuSans-6c"/>
      <use x="340.478516" xlink:href="#DejaVuSans-20"/>
      <use x="372.265625" xlink:href="#DejaVuSans-6d"/>
      <use x="469.677734" xlink:href="#DejaVuSans-65"/>
      <use x="531.201172" xlink:href="#DejaVuSans-61"/>
      <use x="592.480469" xlink:href="#DejaVuSans-6e"/>
      <use x="655.859375" xlink:href="#DejaVuSans-20"/>
      <use x="687.646484" xlink:href="#DejaVuSans-63"/>
      <use x="742.626953" xlink:href="#DejaVuSans-6f"/>
      <use x="803.808594" xlink:href="#DejaVuSans-6e"/>
      <use x="867.1875" xlink:href="#DejaVuSans-66"/>
      <use x="902.392578" xlink:href="#DejaVuSans-69"/>
      <use x="930.175781" xlink:href="#DejaVuSans-67"/>
      <use x="993.652344" xlink:href="#DejaVuSans-31"/>
     </g>
    </g>
    <g id="line2d_43">
     <path d="M 788.742813 390.129982 
L 816.742813 390.129982 
" style="fill:none;stroke:#ff0000;stroke-dasharray:7.4,3.2;stroke-dashoffset:0;stroke-opacity:0.7;stroke-width:2;"/>
    </g>
    <g id="line2d_44"/>
    <g id="text_20">
     <!-- annual mean config2 -->
     <g transform="translate(827.942813 395.029982)scale(0.14 -0.14)">
      <use xlink:href="#DejaVuSans-61"/>
      <use x="61.279297" xlink:href="#DejaVuSans-6e"/>
      <use x="124.658203" xlink:href="#DejaVuSans-6e"/>
      <use x="188.037109" xlink:href="#DejaVuSans-75"/>
      <use x="251.416016" xlink:href="#DejaVuSans-61"/>
      <use x="312.695312" xlink:href="#DejaVuSans-6c"/>
      <use x="340.478516" xlink:href="#DejaVuSans-20"/>
      <use x="372.265625" xlink:href="#DejaVuSans-6d"/>
      <use x="469.677734" xlink:href="#DejaVuSans-65"/>
      <use x="531.201172" xlink:href="#DejaVuSans-61"/>
      <use x="592.480469" xlink:href="#DejaVuSans-6e"/>
      <use x="655.859375" xlink:href="#DejaVuSans-20"/>
      <use x="687.646484" xlink:href="#DejaVuSans-63"/>
      <use x="742.626953" xlink:href="#DejaVuSans-6f"/>
      <use x="803.808594" xlink:href="#DejaVuSans-6e"/>
      <use x="867.1875" xlink:href="#DejaVuSans-66"/>
      <use x="902.392578" xlink:href="#DejaVuSans-69"/>
      <use x="930.175781" xlink:href="#DejaVuSans-67"/>
      <use x="993.652344" xlink:href="#DejaVuSans-32"/>
     </g>
    </g>
    <g id="line2d_45">
     <path d="M 788.742813 410.679357 
L 816.742813 410.679357 
" style="fill:none;stroke:#008000;stroke-dasharray:7.4,3.2;stroke-dashoffset:0;stroke-opacity:0.7;stroke-width:2;"/>
    </g>
    <g id="line2d_46"/>
    <g id="text_21">
     <!-- annual mean config3 -->
     <g transform="translate(827.942813 415.579357)scale(0.14 -0.14)">
      <use xlink:href="#DejaVuSans-61"/>
      <use x="61.279297" xlink:href="#DejaVuSans-6e"/>
      <use x="124.658203" xlink:href="#DejaVuSans-6e"/>
      <use x="188.037109" xlink:href="#DejaVuSans-75"/>
      <use x="251.416016" xlink:href="#DejaVuSans-61"/>
      <use x="312.695312" xlink:href="#DejaVuSans-6c"/>
      <use x="340.478516" xlink:href="#DejaVuSans-20"/>
      <use x="372.265625" xlink:href="#DejaVuSans-6d"/>
      <use x="469.677734" xlink:href="#DejaVuSans-65"/>
      <use x="531.201172" xlink:href="#DejaVuSans-61"/>
      <use x="592.480469" xlink:href="#DejaVuSans-6e"/>
      <use x="655.859375" xlink:href="#DejaVuSans-20"/>
      <use x="687.646484" xlink:href="#DejaVuSans-63"/>
      <use x="742.626953" xlink:href="#DejaVuSans-6f"/>
      <use x="803.808594" xlink:href="#DejaVuSans-6e"/>
      <use x="867.1875" xlink:href="#DejaVuSans-66"/>
      <use x="902.392578" xlink:href="#DejaVuSans-69"/>
      <use x="930.175781" xlink:href="#DejaVuSans-67"/>
      <use x="993.652344" xlink:href="#DejaVuSans-33"/>
     </g>
    </g>
    <g id="line2d_47">
     <path d="M 788.742813 431.228732 
L 816.742813 431.228732 
" style="fill:none;stroke:#0000ff;stroke-dasharray:7.4,3.2;stroke-dashoffset:0;stroke-opacity:0.7;stroke-width:2;"/>
    </g>
    <g id="line2d_48"/>
    <g id="text_22">
     <!-- annual mean config4 -->
     <g transform="translate(827.942813 436.128732)scale(0.14 -0.14)">
      <use xlink:href="#DejaVuSans-61"/>
      <use x="61.279297" xlink:href="#DejaVuSans-6e"/>
      <use x="124.658203" xlink:href="#DejaVuSans-6e"/>
      <use x="188.037109" xlink:href="#DejaVuSans-75"/>
      <use x="251.416016" xlink:href="#DejaVuSans-61"/>
      <use x="312.695312" xlink:href="#DejaVuSans-6c"/>
      <use x="340.478516" xlink:href="#DejaVuSans-20"/>
      <use x="372.265625" xlink:href="#DejaVuSans-6d"/>
      <use x="469.677734" xlink:href="#DejaVuSans-65"/>
      <use x="531.201172" xlink:href="#DejaVuSans-61"/>
      <use x="592.480469" xlink:href="#DejaVuSans-6e"/>
      <use x="655.859375" xlink:href="#DejaVuSans-20"/>
      <use x="687.646484" xlink:href="#DejaVuSans-63"/>
      <use x="742.626953" xlink:href="#DejaVuSans-6f"/>
      <use x="803.808594" xlink:href="#DejaVuSans-6e"/>
      <use x="867.1875" xlink:href="#DejaVuSans-66"/>
      <use x="902.392578" xlink:href="#DejaVuSans-69"/>
      <use x="930.175781" xlink:href="#DejaVuSans-67"/>
      <use x="993.652344" xlink:href="#DejaVuSans-34"/>
     </g>
    </g>
   </g>
  </g>
 </g>
 <defs>
  <clipPath id="p9c1d8e1f4c">
   <rect height="432.200295" width="895.341875" x="93.218125" y="19.44"/>
  </clipPath>
 </defs>
</svg>
